# xmcd CD database file
#
# Track frame offsets:
#	150
#	13500
#	30787
#	42272
#	54035
#	64922
#	77460
#	92807
#	106312
#	119700
#
# Disc length: 1735 seconds
#
# Revision: 2
# Processed by: cddbd v1.4b41PL1 Copyright (c) Steve Scherf et al.
# Submitted via: Feurio! 1.60 - http://www.feurio.com
#
DISCID=6f06c50a,8306c50a
DTITLE=Kenny Rogers - And The First Edition
DYEAR=1900
DGENRE=
TTITLE0=Ruby Don`t Take Your Love To Town
TTITLE1=Something's Burning
TTITLE2=Me And Bobby McGee
TTITLE3=Elvira
TTITLE4=Goodtime Liberator
TTITLE5=Reuben James
TTITLE6=Just Dropped In(Condition)
TTITLE7=Shine O Ruby Mountain
TTITLE8=Sunshine
TTITLE9=Ticket To Nowhere
EXTD=Heinz
EXTT0=
EXTT1=
EXTT2=
EXTT3=
EXTT4=
EXTT5=
EXTT6=
EXTT7=
EXTT8=
EXTT9=
PLAYORDER=
